<svg xmlns="http://www.w3.org/2000/svg" viewBox="0 0 128 128" role="img" aria-label="Bundang Fox logo">
  <defs>
    <linearGradient id="fox-orange" x1="24" y1="18" x2="104" y2="112" gradientUnits="userSpaceOnUse">
      <stop offset="0" stop-color="#ff8a3d"/>
      <stop offset="0.48" stop-color="#f15a2f"/>
      <stop offset="1" stop-color="#c72f37"/>
    </linearGradient>
    <filter id="soft-shadow" x="-20%" y="-20%" width="140%" height="145%" color-interpolation-filters="sRGB">
      <feDropShadow dx="0" dy="6" stdDeviation="5" flood-color="#000000" flood-opacity="0.28"/>
    </filter>
  </defs>
  <g filter="url(#soft-shadow)">
    <path fill="url(#fox-orange)" d="M19.5 22.5 48.4 35.3c8.6-4 22.5-4 31.1 0l29-12.8-9.6 36.7c4.2 8.6 3.6 18.4-2.5 27.4-7.7 11.3-22 18.7-32.4 23.3-10.4-4.6-24.7-12-32.4-23.3-6.1-9-6.7-18.8-2.5-27.4L19.5 22.5Z"/>
    <path fill="#fff0d2" d="M41.5 64.7c9.3 6.4 16.6 16.3 22.5 29.9 5.9-13.6 13.2-23.5 22.5-29.9 2.3 8.4-.1 16-6.4 22.3-4.6 4.5-10.8 8-16.1 10.6-5.3-2.6-11.5-6.1-16.1-10.6-6.3-6.3-8.7-13.9-6.4-22.3Z"/>
    <path fill="#27232b" d="M41.1 52.1c6.2 1.1 11 3.8 14.3 8.2-5.8.8-11.3-.4-16.3-3.5a3.8 3.8 0 0 1 2-4.7Zm45.8 0c-6.2 1.1-11 3.8-14.3 8.2 5.8.8 11.3-.4 16.3-3.5a3.8 3.8 0 0 0-2-4.7ZM58.8 82.1h10.4L64 88.9l-5.2-6.8Z"/>
    <path fill="#fff0d2" opacity=".92" d="m31.4 34.7 15.1 9.6-10.1 9.3-5-18.9Zm66.2 0-15.1 9.6 10.1 9.3 5-18.9Z"/>
  </g>
</svg>
